# xmcd
#
# Track frame offsets: 
#        187
#        20292
#        38742
#        58394
#        80984
#        103884
#        121259
#        141187
#        164977
#        189149
#        210944
#        233092
#        252254
#
# Disc length: 3510 seconds
#
# Revision: 2
# Processed by: cddbd v1.5.2PL0 Copyright (c) Steve Scherf et al.
# Submitted via: ExactAudioCopyFreeDBPlugin 1.0
#
DISCID=b60db40d
DTITLE=高橋由美子 - for GIRLS
DYEAR=1995
DGENRE=JPop
TTITLE0=すき…でもすき
TTITLE1=わたし
TTITLE2=あと5分
TTITLE3=HARU
TTITLE4=ETUDE
TTITLE5=スッピンdeキッチン
TTITLE6=週末が晴れたなら
TTITLE7=電話するね
TTITLE8=8分休符
TTITLE9=想い出あげない
TTITLE10=はじまりはいま
TTITLE11=友達でいいから
TTITLE12=あしたも夢が見られる様に
EXTD=
EXTT0=
EXTT1=
EXTT2=
EXTT3=
EXTT4=
EXTT5=
EXTT6=
EXTT7=
EXTT8=
EXTT9=
EXTT10=
EXTT11=
EXTT12=
PLAYORDER=
